# xmcd CD database file
#
# Track frame offsets:
#	150
#	15035
#	28172
#	40545
#	53347
#	65807
#	78282
#	90585
#	104327
#	117520
#	131800
#	143857
#	157397
#	170552
#	184550
#	198380
#	210335
#	223612
#	236222
#	248152
#	273102
#
# Disc length: 4440 seconds
#
# Revision: 0
# Processed by: cddbd v1.5.2PL0 Copyright (c) Steve Scherf et al.
# Submitted via: CDex 1.51
#
DISCID=23115615
DTITLE=T-Bone Walker - Capitol Years
DYEAR=1995
DGENRE=Blues
TTITLE0=I Got A Break Baby
TTITLE1=Mean Old World
TTITLE2=No Worry Blues
TTITLE3=Don't Leave Me Baby
TTITLE4=I'm In An Awful Mood
TTITLE5=I Know Your Wig Is Gone
TTITLE6=T-Bone Jumps Again
TTITLE7=Call It Stormy Monday
TTITLE8=You're My Best Poker Hand
TTITLE9=First Love Blues
TTITLE10=She's My Old Time Used To Be
TTITLE11=T-Bone Shuffle
TTITLE12=That Old Feeling Is Gone
TTITLE13=Plain Old Down Home Blues
TTITLE14=Call It Stormy Monday (Alt.)
TTITLE15=Bobby Sox Baby (Alt.)
TTITLE16=I'm Gonna Find My Baby
TTITLE17=The Time Seems So Long
TTITLE18=That's Better For Me
TTITLE19=Wise Man Blues
TTITLE20=Data
EXTD=YEAR: 1995
EXTT0=
EXTT1=
EXTT2=
EXTT3=
EXTT4=
EXTT5=
EXTT6=
EXTT7=
EXTT8=
EXTT9=
EXTT10=
EXTT11=
EXTT12=
EXTT13=
EXTT14=
EXTT15=
EXTT16=
EXTT17=
EXTT18=
EXTT19=
EXTT20=
PLAYORDER=
